<svg xmlns="http://www.w3.org/2000/svg" xmlns:xlink="http://www.w3.org/1999/xlink" width="500" zoomAndPan="magnify" viewBox="0 0 375 374.999991" height="500" preserveAspectRatio="xMidYMid meet" version="1.0"><defs><g/><clipPath id="12e16d85c5"><path d="M 167 140 L 207 140 L 207 194 L 167 194 Z M 167 140 " clip-rule="nonzero"/></clipPath><clipPath id="e9b993c437"><path d="M 194.753906 140.851562 L 206.828125 148.136719 L 179.539062 193.351562 L 167.464844 186.066406 Z M 194.753906 140.851562 " clip-rule="nonzero"/></clipPath><clipPath id="21f3f5d260"><path d="M 173 151 L 201 151 L 201 179 L 173 179 Z M 173 151 " clip-rule="nonzero"/></clipPath><clipPath id="e0bbbb18cd"><path d="M 183.273438 151.921875 L 200.839844 162.527344 L 191.023438 178.792969 L 173.453125 168.191406 Z M 183.273438 151.921875 " clip-rule="nonzero"/></clipPath><clipPath id="585221e9a8"><path d="M 180 146 L 206 146 L 206 172 L 180 172 Z M 180 146 " clip-rule="nonzero"/></clipPath><clipPath id="696d93f270"><path d="M 189.191406 146.171875 L 205.644531 156.101562 L 196.605469 171.078125 L 180.152344 161.148438 Z M 189.191406 146.171875 " clip-rule="nonzero"/></clipPath></defs><g fill="#000000" fill-opacity="1"><g transform="translate(109.328557, 254.646313)"><g><path d="M 13.609375 0 L 11.578125 0 L 8.796875 -9.15625 L 5.984375 0 L 3.9375 0 L 0.046875 -11.734375 L 2.171875 -11.734375 L 5.03125 -2.203125 L 7.859375 -11.71875 L 9.8125 -11.734375 L 12.65625 -2.203125 L 15.484375 -11.734375 L 17.53125 -11.734375 Z M 13.609375 0 "/></g></g></g><g fill="#000000" fill-opacity="1"><g transform="translate(133.4132, 254.646313)"><g><path d="M 11.71875 0 L 9.734375 0 L 9.734375 -4.859375 L 3.515625 -4.859375 L 3.515625 0 L 1.546875 0 L 1.546875 -11.734375 L 3.515625 -11.734375 L 3.515625 -6.640625 L 9.734375 -6.640625 L 9.734375 -11.734375 L 11.71875 -11.734375 Z M 11.71875 0 "/></g></g></g><g fill="#000000" fill-opacity="1"><g transform="translate(153.38885, 254.646313)"><g><path d="M 9.125 -2.65625 L 3.203125 -2.65625 L 2.078125 0 L 0.015625 0 L 5.203125 -11.734375 L 7.21875 -11.734375 L 12.359375 0 L 10.25 0 Z M 8.359375 -4.40625 L 6.15625 -9.625 L 3.9375 -4.40625 Z M 8.359375 -4.40625 "/></g></g></g><g fill="#000000" fill-opacity="1"><g transform="translate(172.475609, 254.646313)"><g><path d="M 9.5625 -9.953125 L 5.828125 -9.953125 L 5.828125 0 L 3.859375 0 L 3.859375 -9.953125 L 0.15625 -9.953125 L 0.15625 -11.734375 L 9.5625 -11.734375 Z M 9.5625 -9.953125 "/></g></g></g><g fill="#000000" fill-opacity="1"><g transform="translate(188.89571, 254.646313)"><g/></g></g><g fill="#000000" fill-opacity="1"><g transform="translate(199.932193, 254.646313)"><g><path d="M 11.71875 0 L 9.78125 0 L 3.515625 -8.421875 L 3.515625 0 L 1.546875 0 L 1.546875 -11.734375 L 3.484375 -11.734375 L 9.78125 -3.296875 L 9.78125 -11.734375 L 11.71875 -11.734375 Z M 11.71875 0 "/></g></g></g><g fill="#000000" fill-opacity="1"><g transform="translate(219.924602, 254.646313)"><g><path d="M 9.921875 -9.953125 L 3.515625 -9.953125 L 3.515625 -6.796875 L 9.25 -6.796875 L 9.25 -5.015625 L 3.515625 -5.015625 L 3.515625 -1.78125 L 10.125 -1.78125 L 10.125 0 L 1.546875 0 L 1.546875 -11.734375 L 9.921875 -11.734375 Z M 9.921875 -9.953125 "/></g></g></g><g fill="#000000" fill-opacity="1"><g transform="translate(237.636098, 254.646313)"><g><path d="M 6.96875 -6.109375 L 11.25 0 L 8.890625 0 L 5.71875 -4.421875 L 2.5625 0 L 0.25 0 L 4.53125 -6.015625 L 0.546875 -11.734375 L 2.84375 -11.734375 L 5.71875 -7.65625 L 8.59375 -11.734375 L 10.921875 -11.734375 Z M 6.96875 -6.109375 "/></g></g></g><g fill="#000000" fill-opacity="1"><g transform="translate(255.95137, 254.646313)"><g><path d="M 9.5625 -9.953125 L 5.828125 -9.953125 L 5.828125 0 L 3.859375 0 L 3.859375 -9.953125 L 0.15625 -9.953125 L 0.15625 -11.734375 L 9.5625 -11.734375 Z M 9.5625 -9.953125 "/></g></g></g><g fill="#000000" fill-opacity="1"><g transform="translate(144.185474, 166.173778)"><g><path d="M 75.453125 -50.21875 C 75.617188 -50.21875 75.703125 -50.054688 75.703125 -49.734375 C 75.703125 -49.421875 75.617188 -49.265625 75.453125 -49.265625 C 73.628906 -49.265625 72.113281 -48.875 70.90625 -48.09375 C 69.707031 -47.320312 68.65625 -45.863281 67.75 -43.71875 L 50.0625 -0.078125 C 50.007812 0.128906 49.71875 0.234375 49.1875 0.234375 C 48.75 0.234375 48.453125 0.128906 48.296875 -0.078125 L 37.765625 -23.140625 L 28.453125 -0.078125 C 28.390625 0.128906 28.09375 0.234375 27.5625 0.234375 C 27.132812 0.234375 26.835938 0.128906 26.671875 -0.078125 L 6.828125 -43.5625 C 5.921875 -45.644531 4.941406 -47.113281 3.890625 -47.96875 C 2.847656 -48.832031 1.5 -49.265625 -0.15625 -49.265625 C -0.320312 -49.265625 -0.40625 -49.421875 -0.40625 -49.734375 C -0.40625 -50.054688 -0.320312 -50.21875 -0.15625 -50.21875 L 3.296875 -50.140625 C 4.796875 -50.035156 5.921875 -49.984375 6.671875 -49.984375 C 8.222656 -49.984375 10.070312 -50.035156 12.21875 -50.140625 L 15.671875 -50.21875 C 15.828125 -50.21875 15.90625 -50.054688 15.90625 -49.734375 C 15.90625 -49.421875 15.828125 -49.265625 15.671875 -49.265625 C 14.003906 -49.265625 12.742188 -49.078125 11.890625 -48.703125 C 11.035156 -48.328125 10.609375 -47.65625 10.609375 -46.6875 C 10.609375 -46.15625 10.820312 -45.378906 11.25 -44.359375 L 29.015625 -6.03125 L 36.796875 -25.234375 L 28.453125 -43.5625 C 27.535156 -45.644531 26.554688 -47.113281 25.515625 -47.96875 C 24.472656 -48.832031 23.117188 -49.265625 21.453125 -49.265625 C 21.296875 -49.265625 21.21875 -49.421875 21.21875 -49.734375 C 21.21875 -50.054688 21.296875 -50.21875 21.453125 -50.21875 L 24.90625 -50.140625 C 26.40625 -50.035156 27.53125 -49.984375 28.28125 -49.984375 C 29.40625 -49.984375 30.71875 -50.035156 32.21875 -50.140625 L 34.46875 -50.21875 C 34.632812 -50.21875 34.71875 -50.054688 34.71875 -49.734375 C 34.71875 -49.421875 34.632812 -49.265625 34.46875 -49.265625 C 33.394531 -49.265625 32.644531 -49.179688 32.21875 -49.015625 C 31.789062 -48.859375 31.578125 -48.539062 31.578125 -48.0625 C 31.578125 -47.570312 32.003906 -46.335938 32.859375 -44.359375 L 39.296875 -30.53125 L 44.84375 -44.203125 C 45.320312 -45.328125 45.5625 -46.265625 45.5625 -47.015625 C 45.5625 -47.816406 45.253906 -48.390625 44.640625 -48.734375 C 44.023438 -49.085938 43.046875 -49.265625 41.703125 -49.265625 C 41.597656 -49.265625 41.546875 -49.421875 41.546875 -49.734375 C 41.546875 -50.054688 41.597656 -50.21875 41.703125 -50.21875 L 43.953125 -50.140625 C 45.023438 -50.035156 46.046875 -49.984375 47.015625 -49.984375 C 48.085938 -49.984375 49.316406 -50.035156 50.703125 -50.140625 L 54.15625 -50.21875 C 54.269531 -50.21875 54.328125 -50.054688 54.328125 -49.734375 C 54.328125 -49.421875 54.269531 -49.265625 54.15625 -49.265625 C 52.34375 -49.265625 50.816406 -48.875 49.578125 -48.09375 C 48.347656 -47.320312 47.304688 -45.863281 46.453125 -43.71875 L 40.265625 -28.453125 L 50.625 -6.03125 L 66.140625 -44.203125 C 66.515625 -45.003906 66.703125 -45.78125 66.703125 -46.53125 C 66.703125 -47.488281 66.203125 -48.179688 65.203125 -48.609375 C 64.210938 -49.046875 62.566406 -49.265625 60.265625 -49.265625 C 60.109375 -49.265625 60.03125 -49.421875 60.03125 -49.734375 C 60.03125 -50.054688 60.109375 -50.21875 60.265625 -50.21875 L 63.484375 -50.140625 C 65.304688 -50.035156 66.914062 -49.984375 68.3125 -49.984375 C 69.4375 -49.984375 70.691406 -50.035156 72.078125 -50.140625 Z M 75.453125 -50.21875 "/></g></g></g><g fill="#000000" fill-opacity="1"><g transform="translate(177.492418, 205.414354)"><g><path d="M 56.171875 -50.21875 C 56.328125 -50.21875 56.40625 -50.054688 56.40625 -49.734375 C 56.40625 -49.421875 56.328125 -49.265625 56.171875 -49.265625 C 53.867188 -49.265625 52.25 -48.703125 51.3125 -47.578125 C 50.375 -46.453125 49.90625 -44.519531 49.90625 -41.78125 L 49.90625 0.890625 C 49.90625 0.992188 49.769531 1.070312 49.5 1.125 C 49.226562 1.175781 49.039062 1.148438 48.9375 1.046875 L 12.609375 -43.640625 L 11.25 -45.15625 L 11.25 -8.359375 C 11.25 -5.628906 11.703125 -3.710938 12.609375 -2.609375 C 13.523438 -1.515625 15.109375 -0.96875 17.359375 -0.96875 C 17.515625 -0.96875 17.59375 -0.804688 17.59375 -0.484375 C 17.59375 -0.160156 17.515625 0 17.359375 0 C 16.066406 0 15.078125 -0.0234375 14.390625 -0.078125 L 10.53125 -0.15625 L 6.59375 -0.078125 C 5.894531 -0.0234375 4.847656 0 3.453125 0 C 3.347656 0 3.296875 -0.160156 3.296875 -0.484375 C 3.296875 -0.804688 3.347656 -0.96875 3.453125 -0.96875 C 5.753906 -0.96875 7.332031 -1.5 8.1875 -2.5625 C 9.050781 -3.632812 9.484375 -5.566406 9.484375 -8.359375 L 9.484375 -46.84375 C 7.609375 -48.457031 5.679688 -49.265625 3.703125 -49.265625 C 3.535156 -49.265625 3.453125 -49.421875 3.453125 -49.734375 C 3.453125 -50.054688 3.535156 -50.21875 3.703125 -50.21875 L 6.59375 -50.140625 C 7.175781 -50.085938 8.003906 -50.0625 9.078125 -50.0625 C 9.992188 -50.0625 10.742188 -50.085938 11.328125 -50.140625 C 11.921875 -50.191406 12.378906 -50.21875 12.703125 -50.21875 C 13.078125 -50.21875 13.382812 -50.125 13.625 -49.9375 C 13.863281 -49.75 14.144531 -49.363281 14.46875 -48.78125 C 15.050781 -47.8125 15.691406 -46.898438 16.390625 -46.046875 L 48.140625 -6.59375 L 48.140625 -41.78125 C 48.140625 -44.519531 47.707031 -46.453125 46.84375 -47.578125 C 45.988281 -48.703125 44.4375 -49.265625 42.1875 -49.265625 C 42.082031 -49.265625 42.03125 -49.421875 42.03125 -49.734375 C 42.03125 -50.054688 42.082031 -50.21875 42.1875 -50.21875 L 45.25 -50.140625 C 46.851562 -50.035156 48.132812 -49.984375 49.09375 -49.984375 C 50.007812 -49.984375 51.320312 -50.035156 53.03125 -50.140625 Z M 56.171875 -50.21875 "/></g></g></g><g clip-path="url(#12e16d85c5)"><g clip-path="url(#e9b993c437)"><path fill="#ffffff" d="M 194.753906 140.851562 L 206.828125 148.136719 L 179.527344 193.371094 L 167.453125 186.085938 Z M 194.753906 140.851562 " fill-opacity="1" fill-rule="nonzero"/></g></g><g clip-path="url(#21f3f5d260)"><g clip-path="url(#e0bbbb18cd)"><path fill="#ffffff" d="M 183.273438 151.921875 L 200.8125 162.507812 L 190.992188 178.777344 L 173.453125 168.191406 Z M 183.273438 151.921875 " fill-opacity="1" fill-rule="nonzero"/></g></g><g clip-path="url(#585221e9a8)"><g clip-path="url(#696d93f270)"><path fill="#ffffff" d="M 189.191406 146.171875 L 205.628906 156.09375 L 196.589844 171.066406 L 180.152344 161.148438 Z M 189.191406 146.171875 " fill-opacity="1" fill-rule="nonzero"/></g></g><path stroke-linecap="butt" transform="matrix(0.431053, -0.613753, 0.613753, 0.431053, 164.695335, 196.992659)" fill="none" stroke-linejoin="miter" d="M 0.00162538 0.998052 L 116.888683 1.001616 " stroke="#000000" stroke-width="2" stroke-opacity="1" stroke-miterlimit="4"/><g fill="#000000" fill-opacity="1"><g transform="translate(164.244772, 278.598431)"><g><path d="M 1.359375 0.140625 C 0.992188 0.140625 0.6875 0.0625 0.4375 -0.09375 C 0.1875 -0.257812 0.0625 -0.453125 0.0625 -0.671875 C 0.0625 -0.867188 0.113281 -1.019531 0.21875 -1.125 C 0.332031 -1.226562 0.46875 -1.28125 0.625 -1.28125 C 0.769531 -1.28125 0.882812 -1.242188 0.96875 -1.171875 C 1.050781 -1.097656 1.144531 -0.976562 1.25 -0.8125 C 1.363281 -0.632812 1.46875 -0.503906 1.5625 -0.421875 C 1.65625 -0.335938 1.789062 -0.296875 1.96875 -0.296875 C 2.101562 -0.296875 2.207031 -0.332031 2.28125 -0.40625 C 2.351562 -0.488281 2.398438 -0.617188 2.421875 -0.796875 C 2.429688 -0.828125 2.4375 -0.875 2.4375 -0.9375 C 2.4375 -1.1875 2.363281 -1.398438 2.21875 -1.578125 C 2.082031 -1.753906 1.863281 -1.957031 1.5625 -2.1875 C 1.257812 -2.4375 1.035156 -2.648438 0.890625 -2.828125 C 0.742188 -3.015625 0.671875 -3.234375 0.671875 -3.484375 C 0.671875 -3.535156 0.675781 -3.609375 0.6875 -3.703125 C 0.726562 -3.921875 0.832031 -4.125 1 -4.3125 C 1.175781 -4.507812 1.398438 -4.671875 1.671875 -4.796875 C 1.953125 -4.921875 2.25 -4.984375 2.5625 -4.984375 C 2.96875 -4.984375 3.28125 -4.914062 3.5 -4.78125 C 3.726562 -4.644531 3.828125 -4.457031 3.796875 -4.21875 C 3.773438 -4.0625 3.707031 -3.9375 3.59375 -3.84375 C 3.476562 -3.75 3.359375 -3.703125 3.234375 -3.703125 C 3.054688 -3.703125 2.925781 -3.742188 2.84375 -3.828125 C 2.757812 -3.910156 2.679688 -4.023438 2.609375 -4.171875 C 2.535156 -4.328125 2.460938 -4.441406 2.390625 -4.515625 C 2.316406 -4.585938 2.195312 -4.625 2.03125 -4.625 C 1.894531 -4.625 1.785156 -4.582031 1.703125 -4.5 C 1.628906 -4.425781 1.585938 -4.335938 1.578125 -4.234375 C 1.566406 -4.203125 1.5625 -4.15625 1.5625 -4.09375 C 1.5625 -3.875 1.628906 -3.675781 1.765625 -3.5 C 1.910156 -3.332031 2.128906 -3.132812 2.421875 -2.90625 C 2.742188 -2.644531 2.976562 -2.421875 3.125 -2.234375 C 3.28125 -2.046875 3.359375 -1.828125 3.359375 -1.578125 C 3.359375 -1.535156 3.347656 -1.460938 3.328125 -1.359375 C 3.285156 -1.128906 3.175781 -0.898438 3 -0.671875 C 2.820312 -0.441406 2.585938 -0.25 2.296875 -0.09375 C 2.015625 0.0625 1.703125 0.140625 1.359375 0.140625 Z M 1.359375 0.140625 "/></g></g></g><g fill="#000000" fill-opacity="1"><g transform="translate(171.991109, 278.598431)"><g><path d="M 3.828125 -4.859375 C 3.878906 -4.859375 3.90625 -4.816406 3.90625 -4.734375 C 3.90625 -4.671875 3.859375 -4.570312 3.765625 -4.4375 C 3.671875 -4.300781 3.582031 -4.234375 3.5 -4.234375 C 3.46875 -4.234375 3.328125 -4.253906 3.078125 -4.296875 C 2.835938 -4.335938 2.5625 -4.367188 2.25 -4.390625 L 1.71875 -1.390625 C 1.707031 -1.253906 1.703125 -1.164062 1.703125 -1.125 C 1.703125 -0.914062 1.753906 -0.765625 1.859375 -0.671875 C 1.960938 -0.585938 2.125 -0.546875 2.34375 -0.546875 C 2.65625 -0.546875 3.003906 -0.695312 3.390625 -1 L 3.40625 -1 C 3.4375 -1 3.460938 -0.988281 3.484375 -0.96875 C 3.515625 -0.945312 3.519531 -0.921875 3.5 -0.890625 C 3.113281 -0.523438 2.769531 -0.257812 2.46875 -0.09375 C 2.175781 0.0703125 1.878906 0.15625 1.578125 0.15625 C 0.898438 0.15625 0.5625 -0.148438 0.5625 -0.765625 C 0.5625 -0.890625 0.578125 -1.03125 0.609375 -1.1875 L 1.09375 -3.84375 C 1.113281 -3.988281 1.125 -4.109375 1.125 -4.203125 C 1.125 -4.328125 1.09375 -4.410156 1.03125 -4.453125 C 0.96875 -4.492188 0.847656 -4.515625 0.671875 -4.515625 C 0.640625 -4.515625 0.625 -4.546875 0.625 -4.609375 C 0.625 -4.679688 0.640625 -4.71875 0.671875 -4.71875 C 1.335938 -4.71875 1.867188 -5.085938 2.265625 -5.828125 C 2.285156 -5.847656 2.316406 -5.859375 2.359375 -5.859375 C 2.398438 -5.859375 2.4375 -5.847656 2.46875 -5.828125 C 2.5 -5.816406 2.507812 -5.800781 2.5 -5.78125 L 2.3125 -4.75 C 2.550781 -4.757812 2.753906 -4.769531 2.921875 -4.78125 C 3.085938 -4.800781 3.226562 -4.8125 3.34375 -4.8125 C 3.5625 -4.84375 3.722656 -4.859375 3.828125 -4.859375 Z M 3.828125 -4.859375 "/></g></g></g><g fill="#000000" fill-opacity="1"><g transform="translate(179.54891, 278.598431)"><g><path d="M 5.609375 -1 C 5.617188 -1.007812 5.628906 -1.015625 5.640625 -1.015625 C 5.671875 -1.015625 5.691406 -1 5.703125 -0.96875 C 5.722656 -0.945312 5.722656 -0.921875 5.703125 -0.890625 C 5.398438 -0.535156 5.128906 -0.28125 4.890625 -0.125 C 4.660156 0.03125 4.421875 0.109375 4.171875 0.109375 C 3.773438 0.109375 3.578125 -0.109375 3.578125 -0.546875 C 3.578125 -0.671875 3.59375 -0.8125 3.625 -0.96875 L 3.828125 -2.109375 C 3.535156 -1.378906 3.195312 -0.816406 2.8125 -0.421875 C 2.425781 -0.0351562 2.019531 0.15625 1.59375 0.15625 C 1.019531 0.15625 0.734375 -0.1875 0.734375 -0.875 C 0.734375 -1.082031 0.753906 -1.289062 0.796875 -1.5 L 1.234375 -3.734375 C 1.253906 -3.859375 1.265625 -3.957031 1.265625 -4.03125 C 1.265625 -4.226562 1.195312 -4.328125 1.0625 -4.328125 C 0.976562 -4.328125 0.890625 -4.289062 0.796875 -4.21875 C 0.703125 -4.144531 0.578125 -4.035156 0.421875 -3.890625 C 0.398438 -3.867188 0.378906 -3.859375 0.359375 -3.859375 C 0.335938 -3.859375 0.316406 -3.875 0.296875 -3.90625 C 0.285156 -3.9375 0.289062 -3.960938 0.3125 -3.984375 C 0.59375 -4.316406 0.84375 -4.5625 1.0625 -4.71875 C 1.28125 -4.882812 1.503906 -4.96875 1.734375 -4.96875 C 2.148438 -4.96875 2.359375 -4.726562 2.359375 -4.25 C 2.359375 -4.132812 2.335938 -3.960938 2.296875 -3.734375 L 1.90625 -1.734375 C 1.863281 -1.546875 1.84375 -1.359375 1.84375 -1.171875 C 1.84375 -0.753906 1.972656 -0.546875 2.234375 -0.546875 C 2.472656 -0.546875 2.71875 -0.695312 2.96875 -1 C 3.21875 -1.3125 3.453125 -1.757812 3.671875 -2.34375 C 3.898438 -2.9375 4.085938 -3.644531 4.234375 -4.46875 L 4.28125 -4.703125 C 4.320312 -4.867188 4.554688 -4.953125 4.984375 -4.953125 C 5.117188 -4.953125 5.21875 -4.941406 5.28125 -4.921875 C 5.351562 -4.898438 5.390625 -4.878906 5.390625 -4.859375 L 5.34375 -4.59375 C 5.257812 -4.195312 5.210938 -3.972656 5.203125 -3.921875 L 4.6875 -1.125 C 4.675781 -1.039062 4.671875 -0.945312 4.671875 -0.84375 C 4.671875 -0.613281 4.738281 -0.5 4.875 -0.5 C 5.050781 -0.5 5.296875 -0.664062 5.609375 -1 Z M 5.609375 -1 "/></g></g></g><g fill="#000000" fill-opacity="1"><g transform="translate(189.30632, 278.598431)"><g><path d="M 4.5625 -1.125 C 4.539062 -1 4.53125 -0.894531 4.53125 -0.8125 C 4.53125 -0.625 4.59375 -0.53125 4.71875 -0.53125 C 4.800781 -0.53125 4.894531 -0.566406 5 -0.640625 C 5.101562 -0.710938 5.234375 -0.820312 5.390625 -0.96875 C 5.398438 -0.988281 5.414062 -1 5.4375 -1 C 5.457031 -1 5.472656 -0.984375 5.484375 -0.953125 C 5.503906 -0.921875 5.503906 -0.894531 5.484375 -0.875 C 5.203125 -0.53125 4.953125 -0.28125 4.734375 -0.125 C 4.515625 0.03125 4.285156 0.109375 4.046875 0.109375 C 3.648438 0.109375 3.453125 -0.128906 3.453125 -0.609375 C 3.453125 -0.773438 3.46875 -0.945312 3.5 -1.125 L 3.65625 -1.984375 C 3.3125 -1.304688 2.941406 -0.78125 2.546875 -0.40625 C 2.160156 -0.03125 1.765625 0.15625 1.359375 0.15625 C 1.035156 0.15625 0.765625 0.0546875 0.546875 -0.140625 C 0.335938 -0.347656 0.234375 -0.660156 0.234375 -1.078125 C 0.234375 -1.242188 0.253906 -1.410156 0.296875 -1.578125 C 0.398438 -2.171875 0.632812 -2.726562 1 -3.25 C 1.375 -3.78125 1.800781 -4.207031 2.28125 -4.53125 C 2.769531 -4.851562 3.242188 -5.015625 3.703125 -5.015625 C 3.890625 -5.015625 4.054688 -4.988281 4.203125 -4.9375 L 4.65625 -7.40625 C 4.675781 -7.570312 4.6875 -7.710938 4.6875 -7.828125 C 4.6875 -8.066406 4.609375 -8.1875 4.453125 -8.1875 C 4.347656 -8.1875 4.171875 -8.128906 3.921875 -8.015625 L 3.90625 -8.015625 C 3.863281 -8.015625 3.835938 -8.035156 3.828125 -8.078125 C 3.828125 -8.128906 3.84375 -8.15625 3.875 -8.15625 L 5.828125 -9.125 L 5.84375 -9.125 C 5.882812 -9.125 5.914062 -9.109375 5.9375 -9.078125 C 5.96875 -9.054688 5.976562 -9.035156 5.96875 -9.015625 Z M 1.984375 -0.71875 C 2.253906 -0.71875 2.515625 -0.84375 2.765625 -1.09375 C 3.023438 -1.34375 3.25 -1.648438 3.4375 -2.015625 C 3.625 -2.378906 3.757812 -2.726562 3.84375 -3.0625 L 3.90625 -3.390625 C 3.945312 -3.710938 3.875 -3.960938 3.6875 -4.140625 C 3.5 -4.316406 3.265625 -4.40625 2.984375 -4.40625 C 2.160156 -4.40625 1.628906 -3.691406 1.390625 -2.265625 C 1.359375 -2.066406 1.34375 -1.859375 1.34375 -1.640625 C 1.34375 -1.023438 1.554688 -0.71875 1.984375 -0.71875 Z M 1.984375 -0.71875 "/></g></g></g><g fill="#000000" fill-opacity="1"><g transform="translate(198.736932, 278.598431)"><g><path d="M 2.171875 -6.28125 C 1.953125 -6.28125 1.773438 -6.34375 1.640625 -6.46875 C 1.515625 -6.601562 1.453125 -6.78125 1.453125 -7 C 1.453125 -7.207031 1.515625 -7.375 1.640625 -7.5 C 1.773438 -7.625 1.953125 -7.6875 2.171875 -7.6875 C 2.390625 -7.6875 2.5625 -7.625 2.6875 -7.5 C 2.8125 -7.375 2.875 -7.207031 2.875 -7 C 2.875 -6.769531 2.8125 -6.59375 2.6875 -6.46875 C 2.5625 -6.34375 2.390625 -6.28125 2.171875 -6.28125 Z M 1.328125 0.109375 C 0.929688 0.109375 0.734375 -0.125 0.734375 -0.59375 C 0.734375 -0.71875 0.753906 -0.894531 0.796875 -1.125 L 1.3125 -3.734375 C 1.332031 -3.847656 1.34375 -3.945312 1.34375 -4.03125 C 1.34375 -4.132812 1.320312 -4.210938 1.28125 -4.265625 C 1.238281 -4.328125 1.1875 -4.359375 1.125 -4.359375 C 0.945312 -4.359375 0.707031 -4.1875 0.40625 -3.84375 C 0.394531 -3.84375 0.378906 -3.84375 0.359375 -3.84375 C 0.328125 -3.84375 0.300781 -3.851562 0.28125 -3.875 C 0.269531 -3.90625 0.273438 -3.9375 0.296875 -3.96875 C 0.585938 -4.3125 0.851562 -4.5625 1.09375 -4.71875 C 1.34375 -4.882812 1.585938 -4.96875 1.828125 -4.96875 C 2.222656 -4.96875 2.421875 -4.75 2.421875 -4.3125 C 2.421875 -4.164062 2.40625 -4.023438 2.375 -3.890625 L 1.84375 -1.125 C 1.832031 -1.039062 1.828125 -0.941406 1.828125 -0.828125 C 1.828125 -0.628906 1.890625 -0.53125 2.015625 -0.53125 C 2.097656 -0.53125 2.191406 -0.566406 2.296875 -0.640625 C 2.398438 -0.710938 2.523438 -0.820312 2.671875 -0.96875 C 2.691406 -0.988281 2.710938 -1 2.734375 -1 C 2.753906 -1 2.769531 -0.984375 2.78125 -0.953125 C 2.800781 -0.921875 2.800781 -0.894531 2.78125 -0.875 C 2.5 -0.53125 2.242188 -0.28125 2.015625 -0.125 C 1.796875 0.03125 1.566406 0.109375 1.328125 0.109375 Z M 1.328125 0.109375 "/></g></g></g><g fill="#000000" fill-opacity="1"><g transform="translate(205.615989, 278.598431)"><g><path d="M 1.984375 0.171875 C 1.429688 0.171875 1.007812 -0.00390625 0.71875 -0.359375 C 0.4375 -0.710938 0.296875 -1.175781 0.296875 -1.75 C 0.296875 -2 0.316406 -2.222656 0.359375 -2.421875 C 0.441406 -2.929688 0.617188 -3.378906 0.890625 -3.765625 C 1.171875 -4.160156 1.503906 -4.46875 1.890625 -4.6875 C 2.273438 -4.90625 2.6875 -5.015625 3.125 -5.015625 C 3.6875 -5.015625 4.117188 -4.84375 4.421875 -4.5 C 4.722656 -4.164062 4.875 -3.710938 4.875 -3.140625 C 4.875 -2.921875 4.847656 -2.679688 4.796875 -2.421875 C 4.679688 -1.867188 4.476562 -1.394531 4.1875 -1 C 3.90625 -0.613281 3.566406 -0.320312 3.171875 -0.125 C 2.785156 0.0703125 2.390625 0.171875 1.984375 0.171875 Z M 2.421875 -0.140625 C 2.679688 -0.140625 2.910156 -0.289062 3.109375 -0.59375 C 3.304688 -0.90625 3.453125 -1.332031 3.546875 -1.875 C 3.609375 -2.195312 3.640625 -2.53125 3.640625 -2.875 C 3.640625 -3.414062 3.554688 -3.859375 3.390625 -4.203125 C 3.222656 -4.546875 3 -4.71875 2.71875 -4.71875 C 2.46875 -4.71875 2.242188 -4.570312 2.046875 -4.28125 C 1.847656 -3.988281 1.695312 -3.550781 1.59375 -2.96875 C 1.539062 -2.644531 1.515625 -2.3125 1.515625 -1.96875 C 1.515625 -1.425781 1.59375 -0.984375 1.75 -0.640625 C 1.90625 -0.304688 2.128906 -0.140625 2.421875 -0.140625 Z M 2.421875 -0.140625 "/></g></g></g></svg>